<svg id="SvgjsSvg1406" width="242.375" height="1277" xmlns="http://www.w3.org/2000/svg" version="1.1" xmlns:xlink="http://www.w3.org/1999/xlink" xmlns:svgjs="http://svgjs.com/svgjs"><defs id="SvgjsDefs1407"><marker id="SvgjsMarker1416" markerWidth="16" markerHeight="12" refX="16" refY="6" viewBox="0 0 16 12" orient="auto" markerUnits="userSpaceOnUse" stroke-dasharray="0,0"><path id="SvgjsPath1417" d="M0,2 L14,6 L0,11 L0,2" fill="#323232" stroke="#323232" stroke-width="2"></path></marker><marker id="SvgjsMarker1428" markerWidth="16" markerHeight="12" refX="16" refY="6" viewBox="0 0 16 12" orient="auto" markerUnits="userSpaceOnUse" stroke-dasharray="0,0"><path id="SvgjsPath1429" d="M0,2 L14,6 L0,11 L0,2" fill="#323232" stroke="#323232" stroke-width="2"></path></marker><marker id="SvgjsMarker1438" markerWidth="16" markerHeight="12" refX="16" refY="6" viewBox="0 0 16 12" orient="auto" markerUnits="userSpaceOnUse" stroke-dasharray="0,0"><path id="SvgjsPath1439" d="M0,2 L14,6 L0,11 L0,2" fill="#323232" stroke="#323232" stroke-width="2"></path></marker><marker id="SvgjsMarker1448" markerWidth="16" markerHeight="12" refX="16" refY="6" viewBox="0 0 16 12" orient="auto" markerUnits="userSpaceOnUse" stroke-dasharray="0,0"><path id="SvgjsPath1449" d="M0,2 L14,6 L0,11 L0,2" fill="#323232" stroke="#323232" stroke-width="2"></path></marker><marker id="SvgjsMarker1458" markerWidth="16" markerHeight="12" refX="16" refY="6" viewBox="0 0 16 12" orient="auto" markerUnits="userSpaceOnUse" stroke-dasharray="0,0"><path id="SvgjsPath1459" d="M0,2 L14,6 L0,11 L0,2" fill="#323232" stroke="#323232" stroke-width="2"></path></marker><marker id="SvgjsMarker1468" markerWidth="16" markerHeight="12" refX="16" refY="6" viewBox="0 0 16 12" orient="auto" markerUnits="userSpaceOnUse" stroke-dasharray="0,0"><path id="SvgjsPath1469" d="M0,2 L14,6 L0,11 L0,2" fill="#323232" stroke="#323232" stroke-width="2"></path></marker><marker id="SvgjsMarker1482" markerWidth="16" markerHeight="12" refX="16" refY="6" viewBox="0 0 16 12" orient="auto" markerUnits="userSpaceOnUse" stroke-dasharray="0,0"><path id="SvgjsPath1483" d="M0,2 L14,6 L0,11 L0,2" fill="#323232" stroke="#323232" stroke-width="2"></path></marker><marker id="SvgjsMarker1490" markerWidth="16" markerHeight="12" refX="16" refY="6" viewBox="0 0 16 12" orient="auto" markerUnits="userSpaceOnUse" stroke-dasharray="0,0"><path id="SvgjsPath1491" d="M0,2 L14,6 L0,11 L0,2" fill="#323232" stroke="#323232" stroke-width="2"></path></marker><marker id="SvgjsMarker1500" markerWidth="16" markerHeight="12" refX="16" refY="6" viewBox="0 0 16 12" orient="auto" markerUnits="userSpaceOnUse" stroke-dasharray="0,0"><path id="SvgjsPath1501" d="M0,2 L14,6 L0,11 L0,2" fill="#323232" stroke="#323232" stroke-width="2"></path></marker><marker id="SvgjsMarker1512" markerWidth="16" markerHeight="12" refX="16" refY="6" viewBox="0 0 16 12" orient="auto" markerUnits="userSpaceOnUse" stroke-dasharray="0,0"><path id="SvgjsPath1513" d="M0,2 L14,6 L0,11 L0,2" fill="#323232" stroke="#323232" stroke-width="2"></path></marker><marker id="SvgjsMarker1522" markerWidth="16" markerHeight="12" refX="16" refY="6" viewBox="0 0 16 12" orient="auto" markerUnits="userSpaceOnUse" stroke-dasharray="0,0"><path id="SvgjsPath1523" d="M0,2 L14,6 L0,11 L0,2" fill="#323232" stroke="#323232" stroke-width="2"></path></marker><marker id="SvgjsMarker1532" markerWidth="16" markerHeight="12" refX="16" refY="6" viewBox="0 0 16 12" orient="auto" markerUnits="userSpaceOnUse" stroke-dasharray="0,0"><path id="SvgjsPath1533" d="M0,2 L14,6 L0,11 L0,2" fill="#323232" stroke="#323232" stroke-width="2"></path></marker><marker id="SvgjsMarker1542" markerWidth="16" markerHeight="12" refX="16" refY="6" viewBox="0 0 16 12" orient="auto" markerUnits="userSpaceOnUse" stroke-dasharray="0,0"><path id="SvgjsPath1543" d="M0,2 L14,6 L0,11 L0,2" fill="#323232" stroke="#323232" stroke-width="2"></path></marker><marker id="SvgjsMarker1552" markerWidth="16" markerHeight="12" refX="16" refY="6" viewBox="0 0 16 12" orient="auto" markerUnits="userSpaceOnUse" stroke-dasharray="0,0"><path id="SvgjsPath1553" d="M0,2 L14,6 L0,11 L0,2" fill="#323232" stroke="#323232" stroke-width="2"></path></marker><marker id="SvgjsMarker1560" markerWidth="16" markerHeight="12" refX="16" refY="6" viewBox="0 0 16 12" orient="auto" markerUnits="userSpaceOnUse" stroke-dasharray="0,0"><path id="SvgjsPath1561" d="M0,2 L14,6 L0,11 L0,2" fill="#323232" stroke="#323232" stroke-width="2"></path></marker><marker id="SvgjsMarker1574" markerWidth="16" markerHeight="12" refX="16" refY="6" viewBox="0 0 16 12" orient="auto" markerUnits="userSpaceOnUse" stroke-dasharray="0,0"><path id="SvgjsPath1575" d="M0,2 L14,6 L0,11 L0,2" fill="#323232" stroke="#323232" stroke-width="2"></path></marker></defs><g id="SvgjsG1408" transform="translate(26.75,25)"><path id="SvgjsPath1409" d="M 0 0L 159 0L 159 47L 0 47Z" stroke="rgba(50,50,50,1)" stroke-width="2" fill-opacity="1" fill="#ffffff"></path><g id="SvgjsG1410"><text id="SvgjsText1411" font-family="微软雅黑" text-anchor="middle" font-size="13px" width="139px" fill="#323232" font-weight="400" align="middle" anchor="middle" family="微软雅黑" size="13px" weight="400" font-style="" opacity="1" y="13.55" transform="rotate(0)"><tspan id="SvgjsTspan1412" dy="16" x="79.5"><tspan id="SvgjsTspan1413" style="text-decoration:;">FC1 enabled, reset</tspan></tspan></text></g></g><g id="SvgjsG1414"><path id="SvgjsPath1415" d="M106.25 72L106.25 93L106.25 93L106.25 114" stroke="#323232" stroke-width="2" fill="none" marker-end="url(#SvgjsMarker1416)"></path></g><g id="SvgjsG1418" transform="translate(27,114)"><path id="SvgjsPath1419" d="M 16 0L 158.5 0L 142.5 48L 0 48L 16 0Z" stroke="rgba(50,50,50,1)" stroke-width="2" fill-opacity="1" fill="#ffffff"></path><g id="SvgjsG1420"><text id="SvgjsText1421" font-family="微软雅黑" text-anchor="middle" font-size="13px" width="111px" fill="#323232" font-weight="400" align="middle" anchor="middle" family="微软雅黑" size="13px" weight="400" font-style="" opacity="1" y="6.05" transform="rotate(0)"><tspan id="SvgjsTspan1422" dy="16" x="79.275"><tspan id="SvgjsTspan1423" style="text-decoration:;">FC1_ena = 1</tspan></tspan><tspan id="SvgjsTspan1424" dy="16" x="79.275"><tspan id="SvgjsTspan1425" style="text-decoration:;">FC1_rstn = 0</tspan></tspan></text></g></g><g id="SvgjsG1426"><path id="SvgjsPath1427" d="M106.25 162L106.25 181.5L106.25 181.5L106.25 201" stroke="#323232" stroke-width="2" fill="none" marker-end="url(#SvgjsMarker1428)"></path></g><g id="SvgjsG1430" transform="translate(29,201)"><path id="SvgjsPath1431" d="M 0 0L 154.5 0L 154.5 52L 0 52Z" stroke="rgba(50,50,50,1)" stroke-width="2" fill-opacity="1" fill="#ffffff"></path><g id="SvgjsG1432"><text id="SvgjsText1433" font-family="微软雅黑" text-anchor="middle" font-size="13px" width="135px" fill="#323232" font-weight="400" align="middle" anchor="middle" family="微软雅黑" size="13px" weight="400" font-style="" opacity="1" y="16.05" transform="rotate(0)"><tspan id="SvgjsTspan1434" dy="16" x="77.5"><tspan id="SvgjsTspan1435" style="text-decoration:;">FC1 reset done</tspan></tspan></text></g></g><g id="SvgjsG1436"><path id="SvgjsPath1437" d="M106.25 253L106.25 266L106.25 266L106.25 279" stroke="#323232" stroke-width="2" fill="none" marker-end="url(#SvgjsMarker1438)"></path></g><g id="SvgjsG1440" transform="translate(28,279)"><path id="SvgjsPath1441" d="M 17.666666666666668 0L 156.5 0L 138.83333333333334 53L 0 53L 17.666666666666668 0Z" stroke="rgba(50,50,50,1)" stroke-width="2" fill-opacity="1" fill="#ffffff"></path><g id="SvgjsG1442"><text id="SvgjsText1443" font-family="微软雅黑" text-anchor="middle" font-size="13px" width="110px" fill="#323232" font-weight="400" align="middle" anchor="middle" family="微软雅黑" size="13px" weight="400" font-style="" opacity="1" y="16.55" transform="rotate(0)"><tspan id="SvgjsTspan1444" dy="16" x="78.475"><tspan id="SvgjsTspan1445" style="text-decoration:;">FC1_rstn = 1</tspan></tspan></text></g></g><g id="SvgjsG1446"><path id="SvgjsPath1447" d="M106.25 332L106.25 349.5L106.25 349.5L106.25 367" stroke="#323232" stroke-width="2" fill="none" marker-end="url(#SvgjsMarker1448)"></path></g><g id="SvgjsG1450" transform="translate(32.5,367)"><path id="SvgjsPath1451" d="M 0 0L 147.5 0L 147.5 40L 0 40Z" stroke="rgba(50,50,50,1)" stroke-width="2" fill-opacity="1" fill="#ffffff"></path><g id="SvgjsG1452"><text id="SvgjsText1453" font-family="微软雅黑" text-anchor="middle" font-size="13px" width="128px" fill="#323232" font-weight="400" align="middle" anchor="middle" family="微软雅黑" size="13px" weight="400" font-style="" opacity="1" y="10.05" transform="rotate(0)"><tspan id="SvgjsTspan1454" dy="16" x="74"><tspan id="SvgjsTspan1455" style="text-decoration:;">Wait for FC1 done</tspan></tspan></text></g></g><g id="SvgjsG1456"><path id="SvgjsPath1457" d="M106.25 407L106.25 422.5L106.25 422.5L106.25 438" stroke="#323232" stroke-width="2" fill="none" marker-end="url(#SvgjsMarker1458)"></path></g><g id="SvgjsG1460" transform="translate(46.875,438)"><path id="SvgjsPath1461" d="M 0 23L 59.375 0L 118.75 23L 59.375 46L 0 23Z" stroke="rgba(50,50,50,1)" stroke-width="2" fill-opacity="1" fill="#ffffff"></path><g id="SvgjsG1462"><text id="SvgjsText1463" font-family="微软雅黑" text-anchor="middle" font-size="13px" width="99px" fill="#323232" font-weight="400" align="middle" anchor="middle" family="微软雅黑" size="13px" weight="400" font-style="" opacity="1" y="13.05" transform="rotate(0)"><tspan id="SvgjsTspan1464" dy="16" x="59.5"><tspan id="SvgjsTspan1465" style="text-decoration:;">FC1 done ?</tspan></tspan></text></g></g><g id="SvgjsG1466"><path id="SvgjsPath1467" d="M165.625 461L210 461L210 387L180 387" stroke="#323232" stroke-width="2" fill="none" marker-end="url(#SvgjsMarker1468)"></path><rect id="SvgjsRect1470" width="7" height="16" x="206.5" y="423.1875" fill="#ffffff"></rect><text id="SvgjsText1471" font-family="微软雅黑" text-anchor="middle" font-size="13px" width="7px" fill="#323232" font-weight="400" align="top" anchor="middle" family="微软雅黑" size="13px" weight="400" font-style="" opacity="1" y="421.2375" transform="rotate(0)"><tspan id="SvgjsTspan1472" dy="16" x="210"><tspan id="SvgjsTspan1473" style="text-decoration:;">F</tspan></tspan></text></g><g id="SvgjsG1474" transform="translate(42.125,551)"><path id="SvgjsPath1475" d="M 13.333333333333334 0L 128.25 0L 114.91666666666667 40L 0 40L 13.333333333333334 0Z" stroke="rgba(50,50,50,1)" stroke-width="2" fill-opacity="1" fill="#ffffff"></path><g id="SvgjsG1476"><text id="SvgjsText1477" font-family="微软雅黑" text-anchor="middle" font-size="13px" width="90px" fill="#323232" font-weight="400" align="middle" anchor="middle" family="微软雅黑" size="13px" weight="400" font-style="" opacity="1" y="10.05" transform="rotate(0)"><tspan id="SvgjsTspan1478" dy="16" x="64.2375"><tspan id="SvgjsTspan1479" style="text-decoration:;">FC1 ena = 0</tspan></tspan></text></g></g><g id="SvgjsG1480"><path id="SvgjsPath1481" d="M106.25 484L106.25 517.5L106.25 517.5L106.25 551" stroke="#323232" stroke-width="2" fill="none" marker-end="url(#SvgjsMarker1482)"></path><rect id="SvgjsRect1484" width="7" height="16" x="102.75" y="509.5" fill="#ffffff"></rect><text id="SvgjsText1485" font-family="微软雅黑" text-anchor="middle" font-size="13px" width="7px" fill="#323232" font-weight="400" align="top" anchor="middle" family="微软雅黑" size="13px" weight="400" font-style="" opacity="1" y="507.55" transform="rotate(0)"><tspan id="SvgjsTspan1486" dy="16" x="106.25"><tspan id="SvgjsTspan1487" style="text-decoration:;">T</tspan></tspan></text></g><g id="SvgjsG1488"><path id="SvgjsPath1489" d="M106.25 591L106.25 610L106.25 610L106.25 629" stroke="#323232" stroke-width="2" fill="none" marker-end="url(#SvgjsMarker1490)"></path></g><g id="SvgjsG1492" transform="translate(31.5,629)"><path id="SvgjsPath1493" d="M 0 0L 149.5 0L 149.5 42L 0 42Z" stroke="rgba(50,50,50,1)" stroke-width="2" fill-opacity="1" fill="#ffffff"></path><g id="SvgjsG1494"><text id="SvgjsText1495" font-family="微软雅黑" text-anchor="middle" font-size="13px" width="130px" fill="#323232" font-weight="400" align="middle" anchor="middle" family="微软雅黑" size="13px" weight="400" font-style="" opacity="1" y="11.05" transform="rotate(0)"><tspan id="SvgjsTspan1496" dy="16" x="75"><tspan id="SvgjsTspan1497" style="text-decoration:;">FC2 enabled, reset</tspan></tspan></text></g></g><g id="SvgjsG1498"><path id="SvgjsPath1499" d="M106.25 671L106.25 691.5L106.25 691.5L106.25 712" stroke="#323232" stroke-width="2" fill="none" marker-end="url(#SvgjsMarker1500)"></path></g><g id="SvgjsG1502" transform="translate(25,712)"><path id="SvgjsPath1503" d="M 16.666666666666668 0L 162.5 0L 145.83333333333334 50L 0 50L 16.666666666666668 0Z" stroke="rgba(50,50,50,1)" stroke-width="2" fill-opacity="1" fill="#ffffff"></path><g id="SvgjsG1504"><text id="SvgjsText1505" font-family="微软雅黑" text-anchor="middle" font-size="13px" width="114px" fill="#323232" font-weight="400" align="middle" anchor="middle" family="微软雅黑" size="13px" weight="400" font-style="" opacity="1" y="7.05" transform="rotate(0)"><tspan id="SvgjsTspan1506" dy="16" x="81.375"><tspan id="SvgjsTspan1507" style="text-decoration:;">FC2_ena = 1</tspan></tspan><tspan id="SvgjsTspan1508" dy="16" x="81.375"><tspan id="SvgjsTspan1509" style="text-decoration:;">FC2_rstn = 0</tspan></tspan></text></g></g><g id="SvgjsG1510"><path id="SvgjsPath1511" d="M106.25 762L106.25 779L106.25 779L106.25 796" stroke="#323232" stroke-width="2" fill="none" marker-end="url(#SvgjsMarker1512)"></path></g><g id="SvgjsG1514" transform="translate(35,796)"><path id="SvgjsPath1515" d="M 0 0L 142.5 0L 142.5 47L 0 47Z" stroke="rgba(50,50,50,1)" stroke-width="2" fill-opacity="1" fill="#ffffff"></path><g id="SvgjsG1516"><text id="SvgjsText1517" font-family="微软雅黑" text-anchor="middle" font-size="13px" width="123px" fill="#323232" font-weight="400" align="middle" anchor="middle" family="微软雅黑" size="13px" weight="400" font-style="" opacity="1" y="13.55" transform="rotate(0)"><tspan id="SvgjsTspan1518" dy="16" x="71.5"><tspan id="SvgjsTspan1519" style="text-decoration:;">FC2 init done</tspan></tspan></text></g></g><g id="SvgjsG1520"><path id="SvgjsPath1521" d="M106.25 843L106.25 857.5L106.25 857.5L106.25 872" stroke="#323232" stroke-width="2" fill="none" marker-end="url(#SvgjsMarker1522)"></path></g><g id="SvgjsG1524" transform="translate(37.5,872)"><path id="SvgjsPath1525" d="M 13.333333333333334 0L 137.5 0L 124.16666666666667 40L 0 40L 13.333333333333334 0Z" stroke="rgba(50,50,50,1)" stroke-width="2" fill-opacity="1" fill="#ffffff"></path><g id="SvgjsG1526"><text id="SvgjsText1527" font-family="微软雅黑" text-anchor="middle" font-size="13px" width="97px" fill="#323232" font-weight="400" align="middle" anchor="middle" family="微软雅黑" size="13px" weight="400" font-style="" opacity="1" y="10.05" transform="rotate(0)"><tspan id="SvgjsTspan1528" dy="16" x="69.125"><tspan id="SvgjsTspan1529" style="text-decoration:;">FC2_rstn = 1</tspan></tspan></text></g></g><g id="SvgjsG1530"><path id="SvgjsPath1531" d="M106.25 912L106.25 926.5L106.25 926.5L106.25 941" stroke="#323232" stroke-width="2" fill="none" marker-end="url(#SvgjsMarker1532)"></path></g><g id="SvgjsG1534" transform="translate(25,941)"><path id="SvgjsPath1535" d="M 0 0L 162.5 0L 162.5 35L 0 35Z" stroke="rgba(50,50,50,1)" stroke-width="2" fill-opacity="1" fill="#ffffff"></path><g id="SvgjsG1536"><text id="SvgjsText1537" font-family="微软雅黑" text-anchor="middle" font-size="13px" width="143px" fill="#323232" font-weight="400" align="middle" anchor="middle" family="微软雅黑" size="13px" weight="400" font-style="" opacity="1" y="7.55" transform="rotate(0)"><tspan id="SvgjsTspan1538" dy="16" x="81.5"><tspan id="SvgjsTspan1539" style="text-decoration:;">Wait for FC2 done</tspan></tspan></text></g></g><g id="SvgjsG1540"><path id="SvgjsPath1541" d="M106.25 976L106.25 995L106.25 995L106.25 1014" stroke="#323232" stroke-width="2" fill="none" marker-end="url(#SvgjsMarker1542)"></path></g><g id="SvgjsG1544" transform="translate(43.125,1014)"><path id="SvgjsPath1545" d="M 0 27.5L 63.125 0L 126.25 27.5L 63.125 55L 0 27.5Z" stroke="rgba(50,50,50,1)" stroke-width="2" fill-opacity="1" fill="#ffffff"></path><g id="SvgjsG1546"><text id="SvgjsText1547" font-family="微软雅黑" text-anchor="middle" font-size="13px" width="107px" fill="#323232" font-weight="400" align="middle" anchor="middle" family="微软雅黑" size="13px" weight="400" font-style="" opacity="1" y="17.55" transform="rotate(0)"><tspan id="SvgjsTspan1548" dy="16" x="63.5"><tspan id="SvgjsTspan1549" style="text-decoration:;">FC2 done?</tspan></tspan></text></g></g><g id="SvgjsG1550"><path id="SvgjsPath1551" d="M169.375 1041.5L217.5 1041.5L217.5 958.5L187.5 958.5" stroke="#323232" stroke-width="2" fill="none" marker-end="url(#SvgjsMarker1552)"></path><rect id="SvgjsRect1554" width="7" height="16" x="214" y="1001.0625" fill="#ffffff"></rect><text id="SvgjsText1555" font-family="微软雅黑" text-anchor="middle" font-size="13px" width="7px" fill="#323232" font-weight="400" align="top" anchor="middle" family="微软雅黑" size="13px" weight="400" font-style="" opacity="1" y="999.1125" transform="rotate(0)"><tspan id="SvgjsTspan1556" dy="16" x="217.5"><tspan id="SvgjsTspan1557" style="text-decoration:;">F</tspan></tspan></text></g><g id="SvgjsG1558"><path id="SvgjsPath1559" d="M106.25 1069L106.25 1097L106.25 1097L106.25 1125" stroke="#323232" stroke-width="2" fill="none" marker-end="url(#SvgjsMarker1560)"></path><rect id="SvgjsRect1562" width="7" height="16" x="102.75" y="1089" fill="#ffffff"></rect><text id="SvgjsText1563" font-family="微软雅黑" text-anchor="middle" font-size="13px" width="7px" fill="#323232" font-weight="400" align="top" anchor="middle" family="微软雅黑" size="13px" weight="400" font-style="" opacity="1" y="1087.05" transform="rotate(0)"><tspan id="SvgjsTspan1564" dy="16" x="106.25"><tspan id="SvgjsTspan1565" style="text-decoration:;">T</tspan></tspan></text></g><g id="SvgjsG1566" transform="translate(37.5,1125)"><path id="SvgjsPath1567" d="M 13 0L 137.5 0L 124.5 39L 0 39L 13 0Z" stroke="rgba(50,50,50,1)" stroke-width="2" fill-opacity="1" fill="#ffffff"></path><g id="SvgjsG1568"><text id="SvgjsText1569" font-family="微软雅黑" text-anchor="middle" font-size="13px" width="97px" fill="#323232" font-weight="400" align="middle" anchor="middle" family="微软雅黑" size="13px" weight="400" font-style="" opacity="1" y="9.55" transform="rotate(0)"><tspan id="SvgjsTspan1570" dy="16" x="69.125"><tspan id="SvgjsTspan1571" style="text-decoration:;">FC2_ena = 0</tspan></tspan></text></g></g><g id="SvgjsG1572"><path id="SvgjsPath1573" d="M106.25 1164L106.25 1190L106.25 1190L106.25 1216" stroke="#323232" stroke-width="2" fill="none" marker-end="url(#SvgjsMarker1574)"></path></g><g id="SvgjsG1576" transform="translate(51.5625,1216)"><path id="SvgjsPath1577" d="M 0 0L 109.375 0L 109.375 36L 0 36Z" stroke="rgba(50,50,50,1)" stroke-width="2" fill-opacity="1" fill="#ffffff"></path><g id="SvgjsG1578"><text id="SvgjsText1579" font-family="微软雅黑" text-anchor="middle" font-size="13px" width="90px" fill="#323232" font-weight="400" align="middle" anchor="middle" family="微软雅黑" size="13px" weight="400" font-style="" opacity="1" y="8.05" transform="rotate(0)"><tspan id="SvgjsTspan1580" dy="16" x="55"><tspan id="SvgjsTspan1581" style="text-decoration:;">Calc done</tspan></tspan></text></g></g></svg>